<?xml version="1.0" encoding="UTF-8"?>
<svg version="1.1" xmlns="http://www.w3.org/2000/svg" width="288" height="288">
<path d="M0 0 C1.6924308 -0.01007584 1.6924308 -0.01007584 3.41905212 -0.02035522 C7.12357065 -0.03924523 10.8279071 -0.04325503 14.5324707 -0.04541016 C17.12783378 -0.05184474 19.72319615 -0.05857359 22.31855774 -0.06558228 C27.75112905 -0.0775329 33.18362911 -0.08135157 38.61621094 -0.08007812 C44.85785913 -0.07887898 51.09916031 -0.0999492 57.34072083 -0.13156545 C63.38701578 -0.16107948 69.43312531 -0.16804853 75.47950172 -0.16685867 C78.03212715 -0.16920395 80.58475572 -0.17796625 83.13733482 -0.19352341 C108.78618949 -0.33520268 108.78618949 -0.33520268 121.27075195 4.29052734 C122.19867585 4.63334936 122.19867585 4.63334936 123.14534569 4.98309708 C144.62604594 13.0037427 162.03988846 29.87995468 172.27075195 50.29052734 C174.38833114 55.25072642 176.34544662 60.27226948 177.92700195 65.43115234 C179.39176708 70.01817997 181.80002948 73.64322133 184.58325195 77.54052734 C199.71286804 98.7898165 203.99957115 123.20505385 200.9543457 148.96728516 C200.15061527 153.56142392 198.84857449 157.89737439 197.27075195 162.29052734 C196.89692383 163.34755859 196.5230957 164.40458984 196.13793945 165.49365234 C187.49386746 187.81940121 171.76045332 205.44762669 150.1262207 215.79443359 C139.53744484 220.348015 129.30444262 223.42741606 117.69287109 223.40405273 C116.43209244 223.4039772 115.17131378 223.40390167 113.87232971 223.40382385 C112.51685546 223.39871884 111.16138163 223.39350287 109.8059082 223.38818359 C108.40343781 223.38631588 107.00096676 223.38489365 105.59849548 223.38389587 C101.92754275 223.38009851 98.2566303 223.37029231 94.58569336 223.35919189 C90.83162989 223.34891766 87.07755984 223.34438543 83.32348633 223.33935547 C75.97255661 223.32866725 68.62165995 223.31162466 61.27075195 223.29052734 C61.28074471 224.36381538 61.28074471 224.36381538 61.29093933 225.45878601 C61.35112581 232.2118962 61.39676452 238.9649312 61.42618847 245.71824932 C61.44182438 249.18996844 61.46302408 252.66146538 61.49707031 256.13305664 C61.53599259 260.12697446 61.55047824 264.12065997 61.5637207 268.11474609 C61.57920456 269.35761887 61.59468842 270.60049164 61.61064148 271.88102722 C61.61098137 273.62226616 61.61098137 273.62226616 61.61132812 275.39868164 C61.62132088 276.92757271 61.62132088 276.92757271 61.6315155 278.48735046 C61.08778269 282.71222092 59.23967803 285.32160127 56.27075195 288.29052734 C52.46037425 289.12022746 48.77780165 289.17076553 45.35760498 287.1730957 C43.46984438 285.54604934 41.77398419 283.83298598 40.07543945 282.00927734 C39.43889435 281.36236938 38.80234924 280.71546143 38.14651489 280.0489502 C36.12414608 277.98304787 34.13546018 275.88785259 32.14575195 273.79052734 C30.80275583 272.41091879 29.45772005 271.03329266 28.1105957 269.65771484 C23.19516496 264.61145457 18.33344476 259.54436071 13.72045898 254.21826172 C10.66264548 250.6977587 7.46882168 247.37209326 4.14575195 244.10302734 C3.59516113 243.55622314 3.04457031 243.00941895 2.47729492 242.44604492 C0.74424379 240.72503228 -0.99204578 239.00734903 -2.72924805 237.29052734 C-15.62252319 224.54851409 -15.62252319 224.54851409 -20.98461914 218.24462891 C-23.92998276 214.94562382 -27.13510111 211.91312873 -30.30493164 208.83178711 C-44.64644804 194.86000294 -56.88851946 180.601457 -62.66674805 161.04052734 C-63.99131718 156.7568144 -65.5609005 153.94054391 -68.47924805 150.54052734 C-85.78615663 130.36524843 -88.00401416 103.70039037 -86.72924805 78.29052734 C-86.12105657 72.38835305 -84.73556862 66.86443508 -82.72924805 61.29052734 C-82.48787109 60.61779785 -82.24649414 59.94506836 -81.99780273 59.25195312 C-73.33278605 36.00899955 -56.91996237 18.28570755 -34.72924805 7.29052734 C-23.19842161 2.10887041 -12.59174313 -0.01093318 0 0 Z " fill="#0057CC" transform="translate(86.729248046875,-0.29052734375)"/>
<path d="M0 0 C1.6924308 -0.01007584 1.6924308 -0.01007584 3.41905212 -0.02035522 C7.12357065 -0.03924523 10.8279071 -0.04325503 14.5324707 -0.04541016 C17.12783378 -0.05184474 19.72319615 -0.05857359 22.31855774 -0.06558228 C27.75112905 -0.0775329 33.18362911 -0.08135157 38.61621094 -0.08007812 C44.85785913 -0.07887898 51.09916031 -0.0999492 57.34072083 -0.13156545 C63.38701578 -0.16107948 69.43312531 -0.16804853 75.47950172 -0.16685867 C78.03212715 -0.16920395 80.58475572 -0.17796625 83.13733482 -0.19352341 C108.78618949 -0.33520268 108.78618949 -0.33520268 121.27075195 4.29052734 C122.19867585 4.63334936 122.19867585 4.63334936 123.14534569 4.98309708 C144.62604594 13.0037427 162.03988846 29.87995468 172.27075195 50.29052734 C174.38833114 55.25072642 176.34544662 60.27226948 177.92700195 65.43115234 C179.39176708 70.01817997 181.80002948 73.64322133 184.58325195 77.54052734 C199.71286804 98.7898165 203.99957115 123.20505385 200.9543457 148.96728516 C200.15061527 153.56142392 198.84857449 157.89737439 197.27075195 162.29052734 C196.89692383 163.34755859 196.5230957 164.40458984 196.13793945 165.49365234 C187.49386746 187.81940121 171.76045332 205.44762669 150.1262207 215.79443359 C139.53744484 220.348015 129.30444262 223.42741606 117.69287109 223.40405273 C116.43209244 223.4039772 115.17131378 223.40390167 113.87232971 223.40382385 C112.51685546 223.39871884 111.16138163 223.39350287 109.8059082 223.38818359 C108.40343781 223.38631588 107.00096676 223.38489365 105.59849548 223.38389587 C101.92754275 223.38009851 98.2566303 223.37029231 94.58569336 223.35919189 C90.83162989 223.34891766 87.07755984 223.34438543 83.32348633 223.33935547 C75.97255661 223.32866725 68.62165995 223.31162466 61.27075195 223.29052734 C61.28074471 224.36381538 61.28074471 224.36381538 61.29093933 225.45878601 C61.35112581 232.2118962 61.39676452 238.9649312 61.42618847 245.71824932 C61.44182438 249.18996844 61.46302408 252.66146538 61.49707031 256.13305664 C61.53599259 260.12697446 61.55047824 264.12065997 61.5637207 268.11474609 C61.57920456 269.35761887 61.59468842 270.60049164 61.61064148 271.88102722 C61.61098137 273.62226616 61.61098137 273.62226616 61.61132812 275.39868164 C61.62132088 276.92757271 61.62132088 276.92757271 61.6315155 278.48735046 C61.08778269 282.71222092 59.23967803 285.32160127 56.27075195 288.29052734 C52.46037425 289.12022746 48.77780165 289.17076553 45.35760498 287.1730957 C43.46984438 285.54604934 41.77398419 283.83298598 40.07543945 282.00927734 C39.43889435 281.36236938 38.80234924 280.71546143 38.14651489 280.0489502 C36.12414608 277.98304787 34.13546018 275.88785259 32.14575195 273.79052734 C30.80275583 272.41091879 29.45772005 271.03329266 28.1105957 269.65771484 C23.19516496 264.61145457 18.33344476 259.54436071 13.72045898 254.21826172 C10.66264548 250.6977587 7.46882168 247.37209326 4.14575195 244.10302734 C3.59516113 243.55622314 3.04457031 243.00941895 2.47729492 242.44604492 C0.74424379 240.72503228 -0.99204578 239.00734903 -2.72924805 237.29052734 C-15.62252319 224.54851409 -15.62252319 224.54851409 -20.98461914 218.24462891 C-23.92998276 214.94562382 -27.13510111 211.91312873 -30.30493164 208.83178711 C-45.19568167 194.32492885 -58.32952421 178.87697448 -63.72924805 158.29052734 C-63.39924805 157.30052734 -63.06924805 156.31052734 -62.72924805 155.29052734 C-62.02541992 156.17998047 -61.3215918 157.06943359 -60.59643555 157.98583984 C-48.43436128 172.53765502 -28.54240182 181.93861773 -9.98629761 184.09353638 C-0.93412109 184.88359302 8.22354396 184.66768309 17.30200195 184.69677734 C18.49951584 184.7024321 19.69702972 184.70808685 20.93083191 184.71391296 C27.2703843 184.74376209 33.60984728 184.7623051 39.94946289 184.77099609 C46.43687551 184.78193642 52.92344256 184.82996852 59.41059113 184.88694 C64.45379904 184.92451683 69.49680991 184.93462104 74.54014587 184.93766785 C76.92875278 184.94365076 79.31735923 184.95946469 81.70582581 184.98603821 C107.37277879 185.2511948 128.44028467 180.22323268 148.27075195 163.29052734 C149.07899414 162.68080078 149.88723633 162.07107422 150.7199707 161.44287109 C164.70140288 149.6453686 172.4478074 131.5073178 177.27075195 114.29052734 C177.45694092 113.654375 177.64312988 113.01822266 177.83496094 112.36279297 C179.70890233 105.19698772 179.60185304 98.03155821 179.58325195 90.66552734 C179.59936523 89.38162109 179.61547852 88.09771484 179.63208008 86.77490234 C179.63631143 78.5999301 179.52603182 73.05054573 174.02856445 66.70068359 C151.00257884 46.16861037 127.60036798 41.80806189 97.8684082 41.85693359 C95.41710772 41.85236232 92.9658085 41.84705397 90.51451111 41.84104919 C85.39845545 41.83215817 80.28255624 41.83449572 75.16650391 41.84448242 C68.64967543 41.85597164 62.13338888 41.83573986 55.61663151 41.80656528 C50.56075175 41.78811466 45.50499979 41.78851329 40.44909477 41.7942028 C38.04802121 41.79435491 35.64693836 41.78840363 33.24589729 41.77591133 C5.171699 41.65038071 -18.19425878 47.92905988 -39.14477539 67.68798828 C-53.66642382 82.37521483 -64.84485026 105.38832258 -64.84254456 126.15414429 C-64.83738327 126.86688507 -64.83222198 127.57962585 -64.8269043 128.31396484 C-64.82478188 129.43322861 -64.82478188 129.43322861 -64.82261658 130.57510376 C-64.81705678 132.93862053 -64.80451194 135.30203961 -64.79174805 137.66552734 C-64.78672784 139.27620305 -64.78216585 140.88688026 -64.77807617 142.49755859 C-64.76710056 146.42858533 -64.74986401 150.35953982 -64.72924805 154.29052734 C-78.89096652 140.41871546 -86.43174785 119.78705064 -87.1628418 100.17724609 C-87.18633693 97.77762118 -87.18722482 95.37767992 -87.16674805 92.97802734 C-87.15844971 91.71128174 -87.15015137 90.44453613 -87.14160156 89.1394043 C-86.96625745 79.38191019 -86.03841926 70.48398088 -82.72924805 61.29052734 C-82.48787109 60.61779785 -82.24649414 59.94506836 -81.99780273 59.25195312 C-73.33278605 36.00899955 -56.91996237 18.28570755 -34.72924805 7.29052734 C-23.19842161 2.10887041 -12.59174313 -0.01093318 0 0 Z " fill="#568BFE" transform="translate(86.729248046875,-0.29052734375)"/>
<path d="M0 0 C1.6924308 -0.01007584 1.6924308 -0.01007584 3.41905212 -0.02035522 C7.12357065 -0.03924523 10.8279071 -0.04325503 14.5324707 -0.04541016 C17.12783378 -0.05184474 19.72319615 -0.05857359 22.31855774 -0.06558228 C27.75112905 -0.0775329 33.18362911 -0.08135157 38.61621094 -0.08007812 C44.85785913 -0.07887898 51.09916031 -0.0999492 57.34072083 -0.13156545 C63.38701578 -0.16107948 69.43312531 -0.16804853 75.47950172 -0.16685867 C78.03212715 -0.16920395 80.58475572 -0.17796625 83.13733482 -0.19352341 C108.78618949 -0.33520268 108.78618949 -0.33520268 121.27075195 4.29052734 C122.19867585 4.63334936 122.19867585 4.63334936 123.14534569 4.98309708 C144.64946834 13.01248836 162.00299471 29.88272128 172.27075195 50.29052734 C175.15549301 56.79987828 177.77197066 63.14132882 178.27075195 70.29052734 C177.36325195 69.48615234 176.45575195 68.68177734 175.52075195 67.85302734 C156.70063359 51.88785708 137.06718264 41.97687247 111.99462891 42 C110.92632339 41.99328278 109.85801788 41.98656555 108.75733948 41.97964478 C105.25785552 41.96079081 101.75856466 41.95674685 98.2590332 41.95458984 C95.80201644 41.94815284 93.34500043 41.94142383 90.88798523 41.93441772 C85.74805934 41.92247616 80.60820049 41.91873365 75.46826172 41.91992188 C68.91995515 41.9201248 62.37208383 41.89283509 55.8238802 41.85837746 C50.75085013 41.83601116 45.67792316 41.83208733 40.60484886 41.83314133 C38.19260345 41.83079953 35.78035457 41.82205732 33.36815834 41.80647659 C5.23504773 41.64177631 -18.14554248 47.88311439 -39.14477539 67.68798828 C-53.66642382 82.37521483 -64.84485026 105.38832258 -64.84254456 126.15414429 C-64.83738327 126.86688507 -64.83222198 127.57962585 -64.8269043 128.31396484 C-64.82478188 129.43322861 -64.82478188 129.43322861 -64.82261658 130.57510376 C-64.81705678 132.93862053 -64.80451194 135.30203961 -64.79174805 137.66552734 C-64.78672784 139.27620305 -64.78216585 140.88688026 -64.77807617 142.49755859 C-64.76710056 146.42858533 -64.74986401 150.35953982 -64.72924805 154.29052734 C-78.89096652 140.41871546 -86.43174785 119.78705064 -87.1628418 100.17724609 C-87.18633693 97.77762118 -87.18722482 95.37767992 -87.16674805 92.97802734 C-87.15844971 91.71128174 -87.15015137 90.44453613 -87.14160156 89.1394043 C-86.96625745 79.38191019 -86.03841926 70.48398088 -82.72924805 61.29052734 C-82.48787109 60.61779785 -82.24649414 59.94506836 -81.99780273 59.25195312 C-73.33278605 36.00899955 -56.91996237 18.28570755 -34.72924805 7.29052734 C-23.19842161 2.10887041 -12.59174313 -0.01093318 0 0 Z " fill="#85A8FE" transform="translate(86.729248046875,-0.29052734375)"/>
</svg>
