<?xml version="1.0" encoding="UTF-8"?>
<svg version="1.1" xmlns="http://www.w3.org/2000/svg" width="634" height="750">
<path d="M0 0 C1.11796654 -0.00297112 2.23593308 -0.00594224 3.38777739 -0.0090034 C7.11819086 -0.01764572 10.84857208 -0.01919487 14.57899475 -0.02069092 C17.26044361 -0.02532231 19.94188961 -0.03032738 22.62333679 -0.03573608 C29.89857215 -0.04927391 37.17380195 -0.05533723 44.4490478 -0.05974674 C48.99997431 -0.06251733 53.55089872 -0.06675618 58.10182381 -0.07125092 C70.7252066 -0.08343847 83.34858773 -0.09373825 95.97197628 -0.09712601 C96.77872517 -0.09734557 97.58547406 -0.09756514 98.41666988 -0.09779136 C99.62953917 -0.09811878 99.62953917 -0.09811878 100.86691087 -0.09845281 C102.50515107 -0.09889626 104.14339127 -0.09934282 105.78163147 -0.09979248 C106.59423943 -0.10001391 107.40684739 -0.10023534 108.24407984 -0.10046348 C121.39398776 -0.10440659 134.54384011 -0.12184801 147.69372659 -0.145152 C161.22486911 -0.16893617 174.75598384 -0.18133109 188.28714758 -0.18249393 C195.87207512 -0.18340681 203.45693025 -0.18906094 211.04183769 -0.20731354 C217.50393727 -0.22281037 223.96594206 -0.22777914 230.42805671 -0.21957543 C233.71743828 -0.21570225 237.00659218 -0.21810759 240.29595757 -0.23063278 C254.38388566 -0.28109614 267.80199686 0.15828306 281.59877014 3.14044189 C283.02546729 3.44555506 283.02546729 3.44555506 284.4809866 3.75683212 C286.54351505 4.21949597 288.56698365 4.74596516 290.59877014 5.32794189 C291.32821838 5.53515869 292.05766663 5.74237549 292.80921936 5.95587158 C321.10278153 14.39610819 349.02789024 32.09804861 367.59877014 55.14044189 C368.36834045 56.08403564 369.13791077 57.02762939 369.93080139 57.99981689 C391.0190911 84.32636399 404.67425743 117.18425865 404.77577209 151.15460205 C404.78562889 152.61027336 404.78562889 152.61027336 404.79568481 154.09535217 C404.81530279 157.2900706 404.82706057 160.48474205 404.83705139 163.67950439 C404.84112692 164.78106243 404.84520245 165.88262047 404.84940147 167.01755905 C404.87022279 172.85897378 404.88453623 178.70036535 404.89393616 184.54180908 C404.90493564 190.51452732 404.9392719 196.48686634 404.97910786 202.45945168 C405.00552555 207.1029418 405.0136505 211.74634541 405.01721764 216.38990402 C405.02202636 218.58786935 405.03347211 220.78583236 405.05225563 222.98372269 C405.19956751 241.37792402 403.57980199 259.56147201 397.34877014 277.01544189 C396.90597717 278.2972937 396.90597717 278.2972937 396.45423889 279.6050415 C393.52445999 287.81899538 389.79993546 295.51167273 385.59877014 303.14044189 C385.03416077 304.19489502 384.46955139 305.24934814 383.88783264 306.33575439 C363.73727537 342.56891607 328.68798714 367.62220538 289.47377014 379.39044189 C265.0599917 386.07340094 240.41421968 385.57945471 215.31445301 385.5326159 C209.87012123 385.52576155 204.42581715 385.53633756 198.98149109 385.54455566 C188.34922254 385.55782483 177.71701788 385.55504673 167.08474693 385.54631774 C158.44265892 385.5395185 149.80058869 385.5386341 141.15849876 385.54188919 C139.92449323 385.54234889 138.6904877 385.54280859 137.41908806 385.54328222 C134.91169312 385.54424146 132.40429817 385.5452141 129.89690324 385.54619999 C107.11241502 385.55449011 84.32796011 385.54592454 61.54347732 385.5301722 C40.76883959 385.51591869 19.99425702 385.51722869 -0.78038025 385.53155518 C-24.17021299 385.5476316 -47.56001697 385.55392838 -70.94985467 385.54471838 C-73.44421374 385.54376279 -75.93857282 385.54281968 -78.4329319 385.54188919 C-79.66001593 385.54142636 -80.88709995 385.54096354 -82.15136835 385.54048669 C-90.78521734 385.53789984 -99.41904673 385.54226082 -108.05289268 385.54932785 C-118.57059125 385.55774839 -129.08822265 385.55545022 -139.60591354 385.53948562 C-144.96847822 385.53161327 -150.330931 385.52849397 -155.6934948 385.53843307 C-160.60615605 385.54740067 -165.51860208 385.54241318 -170.43124393 385.52650042 C-172.20397276 385.5231616 -173.97671994 385.52482634 -175.74943688 385.53212778 C-191.88083103 385.59345155 -205.51006903 383.87602762 -217.71372986 372.26544189 C-227.26010153 362.12242199 -229.858101 352.05272675 -229.80528259 338.3381958 C-229.81214584 337.08302658 -229.81900909 335.82785736 -229.82608032 334.53465271 C-229.84118616 331.10974332 -229.84285495 327.68538127 -229.83713794 324.26047945 C-229.83402471 321.37708852 -229.84016424 318.49374553 -229.84617668 315.61036146 C-229.86020329 308.78050332 -229.85868509 301.95077019 -229.84727478 295.12091064 C-229.83588293 288.14959243 -229.84972114 281.17866297 -229.87667125 274.20739615 C-229.89910893 268.17029759 -229.90540121 262.13331841 -229.89959484 256.09618127 C-229.8962793 252.51440111 -229.89826344 248.93286771 -229.91584587 245.35112381 C-230.19101891 183.29062661 -210.08017689 123.95633281 -167.40122986 78.14044189 C-166.18784767 76.74899524 -164.97925183 75.3533555 -163.77622986 73.95294189 C-157.26329213 66.51808147 -150.12686057 60.30126333 -142.40122986 54.14044189 C-141.32654723 53.26340584 -140.25234051 52.38578635 -139.17857361 51.50762939 C-100.6560706 20.27256147 -49.90975278 -0.04192458 0 0 Z " fill="#0057CC" transform="translate(229.40122985839844,364.85955810546875)"/>
<path d="M0 0 C0.76166473 -0.00067474 1.52332947 -0.00134949 2.30807495 -0.00204468 C13.68085486 0.01397185 24.5549096 0.47968474 35.625 3.25 C36.31190918 3.41628906 36.99881836 3.58257812 37.70654297 3.75390625 C64.56977137 10.39439301 86.52120343 24.57975089 106.625 43.25 C107.53185547 44.07564453 107.53185547 44.07564453 108.45703125 44.91796875 C128.00439513 63.45820849 140.11410341 89.50482975 146.625 115.25 C146.80289062 115.91016113 146.98078125 116.57032227 147.1640625 117.25048828 C152.44146002 137.39150839 151.76413536 163.16278598 146.625 183.25 C146.43695801 184.01957031 146.24891602 184.78914062 146.05517578 185.58203125 C136.23597314 224.76510241 110.88558686 257.83305801 76.38916016 278.59570312 C60.02408389 288.131757 42.35470098 294.38882359 23.625 297.25 C21.88089844 297.52457031 21.88089844 297.52457031 20.1015625 297.8046875 C-18.21762933 302.39694084 -58.29282872 292.981535 -89.125 269.375 C-119.83973866 245.16078505 -141.01218704 212.16104847 -147.375 173.25 C-147.55804688 172.13109375 -147.74109375 171.0121875 -147.9296875 169.859375 C-150.01302743 152.36722046 -149.88663222 132.28055064 -145.375 115.25 C-145.19227539 114.50669434 -145.00955078 113.76338867 -144.82128906 112.99755859 C-138.03968864 85.72082584 -124.19762777 62.02665084 -104.375 42.25 C-103.45460937 41.31800781 -102.53421875 40.38601562 -101.5859375 39.42578125 C-74.26597533 13.04658912 -37.5318269 0.02978596 0 0 Z " fill="#0056CC" transform="translate(316.375,-0.24999999999999997)"/>
<path d="M0 0 C15.59592626 -0.07045287 31.19180872 -0.12316418 46.78785515 -0.15543652 C54.0313134 -0.17082734 61.27467211 -0.19176549 68.51806641 -0.22631836 C74.84017389 -0.25646177 81.1622092 -0.27563136 87.48438656 -0.28226548 C90.82404476 -0.28613616 94.16333486 -0.29670262 97.50295639 -0.31719017 C111.98482435 -0.40242212 125.82191085 -0.1146282 140 3 C140.94945496 3.2034906 141.89890991 3.4069812 142.87713623 3.61663818 C144.94173702 4.07845602 146.9664618 4.60502152 149 5.1875 C149.72944824 5.3947168 150.45889648 5.60193359 151.21044922 5.81542969 C179.50401139 14.2556663 207.42912009 31.95760671 226 55 C226.76957031 55.94359375 227.53914062 56.8871875 228.33203125 57.859375 C249.42032096 84.1859221 263.07548729 117.04381676 263.17700195 151.01416016 C263.18357315 151.9846077 263.19014435 152.95505524 263.19691467 153.95491028 C263.21653265 157.14962871 263.22829043 160.34430015 263.23828125 163.5390625 C263.24235678 164.64062054 263.2464323 165.74217857 263.25063133 166.87711716 C263.27145265 172.71853188 263.28576609 178.55992346 263.29516602 184.40136719 C263.3061655 190.37408542 263.34050176 196.34642444 263.38033772 202.31900978 C263.4067554 206.9624999 263.41488035 211.60590351 263.41844749 216.24946213 C263.42325622 218.44742745 263.43470197 220.64539047 263.45348549 222.84328079 C263.60079737 241.23748213 261.98103184 259.42103012 255.75 276.875 C255.45480469 277.72956787 255.15960937 278.58413574 254.85546875 279.46459961 C251.92568985 287.67855348 248.20116532 295.37123084 244 303 C243.43539062 304.05445313 242.87078125 305.10890625 242.2890625 306.1953125 C222.1337235 342.4370723 187.0901491 367.46737492 147.875 379.25 C127.62737854 384.85777658 107.32381937 385.44065138 86.42680287 385.30418181 C82.98494849 385.28504424 79.54308041 385.28363613 76.10118103 385.28010559 C69.62429134 385.27089135 63.147559 385.24642653 56.67073768 385.21605712 C49.27979904 385.18217593 41.88885169 385.16594362 34.49785435 385.15097082 C19.3318162 385.11986337 4.16592406 385.06731701 -11 385 C-11 384.67 -11 384.34 -11 384 C-9.93265625 383.97421875 -8.8653125 383.9484375 -7.765625 383.921875 C4.14102331 383.51358525 15.40578528 381.68727717 27 379 C28.03769531 378.7628125 29.07539063 378.525625 30.14453125 378.28125 C72.01772219 367.73447927 105.29112947 339.69950433 127.25 303.1875 C146.1707498 268.97247745 147.657204 232.89712271 147.39123535 194.80706787 C147.36949333 190.88050858 147.37030236 186.95408829 147.37151146 183.02747917 C147.37096296 179.18541679 147.35992343 175.3434409 147.34550858 171.50140762 C147.33924493 169.6956764 147.33522686 167.88993564 147.33372116 166.08419418 C147.30730282 150.9954491 146.4189319 136.13699395 142.75 121.4375 C142.53166504 120.55384766 142.31333008 119.67019531 142.08837891 118.75976562 C135.17613699 91.69782486 121.31640744 68.01425453 102 48 C101.21109375 47.14792969 100.4221875 46.29585938 99.609375 45.41796875 C74.19352203 18.69765975 36.3698956 3.41196515 0 1 C0 0.67 0 0.34 0 0 Z " fill="#568BFE" transform="translate(371,365)"/>
<path d="M0 0 C0.9416954 0.00141495 1.88339081 0.0028299 2.85362244 0.00428772 C5.82823007 0.00983503 8.8027593 0.02237738 11.77734375 0.03515625 C13.80794161 0.04017807 15.83854067 0.04473978 17.86914062 0.04882812 C22.81773803 0.05978713 27.76627765 0.07701473 32.71484375 0.09765625 C32.71484375 0.42765625 32.71484375 0.75765625 32.71484375 1.09765625 C31.44253906 1.24460937 30.17023438 1.3915625 28.859375 1.54296875 C-7.05571897 5.993145 -37.93808108 20.15465719 -64.28515625 45.09765625 C-65.16945312 45.9175 -66.05375 46.73734375 -66.96484375 47.58203125 C-87.84672374 67.57657923 -101.32174121 93.96160248 -108.16015625 121.84765625 C-108.3514209 122.62544434 -108.54268555 123.40323242 -108.73974609 124.20458984 C-112.08694237 139.00704097 -112.58018581 153.87969871 -112.54394531 168.98461914 C-112.5466629 170.91500988 -112.5502281 172.84539958 -112.55456543 174.77578735 C-112.56359493 179.96319531 -112.5601861 185.15052271 -112.55380726 190.33793187 C-112.54870448 195.78872073 -112.5534499 201.2395032 -112.55657959 206.69029236 C-112.56020407 215.82959214 -112.55545725 224.96885945 -112.54589844 234.1081543 C-112.53498745 244.66193989 -112.53856473 255.21564836 -112.54955125 265.76943213 C-112.55863251 274.85857873 -112.55990617 283.94770215 -112.55467391 293.03685182 C-112.5515626 298.4538569 -112.55112238 303.87082572 -112.55774689 309.28782845 C-112.56353296 314.37282168 -112.55950036 319.4577154 -112.54795837 324.54269791 C-112.54531981 326.40507912 -112.54606312 328.26746874 -112.5504837 330.12984657 C-112.55597163 332.67705434 -112.5490662 335.22394566 -112.53912354 337.77113342 C-112.54358498 338.50275147 -112.54804642 339.23436952 -112.55264306 339.98815781 C-112.46526206 351.57653503 -108.10433362 362.54379108 -100.28515625 371.09765625 C-92.66626526 378.38331543 -82.8903539 383.37457459 -72.28515625 384.09765625 C-72.28515625 384.42765625 -72.28515625 384.75765625 -72.28515625 385.09765625 C-87.4631574 385.16795337 -102.64115101 385.22074534 -117.81927872 385.25309277 C-124.86785599 385.2685161 -131.9163317 385.28951805 -138.96484375 385.32397461 C-145.7729564 385.35723991 -152.58096369 385.37453326 -159.38915253 385.38228798 C-161.98054408 385.38781112 -164.57193018 385.39859628 -167.16327667 385.41484642 C-170.80591574 385.43677105 -174.44812539 385.43961685 -178.09082031 385.43823242 C-179.68118607 385.45441116 -179.68118607 385.45441116 -181.30368042 385.47091675 C-195.05354728 385.41473857 -206.5418386 381.78977996 -216.59765625 372.22265625 C-226.14402792 362.07963635 -228.7420274 352.00994111 -228.68920898 338.29541016 C-228.69607224 337.04024094 -228.70293549 335.78507172 -228.71000671 334.49186707 C-228.72511255 331.06695767 -228.72678134 327.64259563 -228.72106433 324.21769381 C-228.71795111 321.33430287 -228.72409063 318.45095988 -228.73010308 315.56757581 C-228.74412968 308.73771767 -228.74261148 301.90798455 -228.73120117 295.078125 C-228.71980932 288.10680679 -228.73364753 281.13587733 -228.76059765 274.16461051 C-228.78303532 268.12751195 -228.7893276 262.09053277 -228.78352123 256.05339563 C-228.78020569 252.47161547 -228.78218984 248.89008207 -228.79977226 245.30833817 C-229.07494531 183.24784097 -208.96410328 123.91354716 -166.28515625 78.09765625 C-165.07177406 76.70620959 -163.86317822 75.31056986 -162.66015625 73.91015625 C-156.14721852 66.47529583 -149.01078696 60.25847768 -141.28515625 54.09765625 C-140.21047362 53.2206202 -139.1362669 52.34300071 -138.0625 51.46484375 C-104.04639043 23.88367924 -62.60717366 6.91594192 -19.28515625 1.09765625 C-18.63925034 1.01054886 -17.99334442 0.92344147 -17.3278656 0.83369446 C-11.53249422 0.11377626 -5.83531957 -0.0336842 0 0 Z " fill="#85A8FE" transform="translate(228.28515625,364.90234375)"/>
</svg>
