<?xml version="1.0" encoding="UTF-8"?>
<svg version="1.1" xmlns="http://www.w3.org/2000/svg" width="64" height="64">
<path d="M0 0 C4.11917149 2.43151094 7.05805431 5.71223669 10.0078125 9.43359375 C11.43658932 11.1101801 12.89083748 12.35342365 14.63671875 13.6875 C18.25367239 16.82219316 20.10684757 19.48113365 20.73046875 24.296875 C20.93489294 29.37340906 20.08958384 32.68918666 17.44921875 37.125 C16.41762249 40.21978879 16.47439013 41.65131393 16.88671875 44.8125 C17.03947266 46.02486328 17.03947266 46.02486328 17.1953125 47.26171875 C17.27910156 47.87660156 17.36289062 48.49148437 17.44921875 49.125 C13.71434098 48.6270163 11.6368424 48.25008244 8.44921875 46.125 C5.12749945 45.83883225 1.84848766 45.71095359 -1.48242188 45.64648438 C-7.81208218 45.40371911 -12.74457086 43.37664765 -17.55078125 39.125 C-17.55078125 38.465 -17.55078125 37.805 -17.55078125 37.125 C-18.43765625 37.640625 -19.32453125 38.15625 -20.23828125 38.6875 C-23.85396855 40.25657185 -24.88694781 40.06748526 -28.55078125 39.125 C-28.44378906 38.38894531 -28.33679688 37.65289062 -28.2265625 36.89453125 C-28.04673828 35.43080078 -28.04673828 35.43080078 -27.86328125 33.9375 C-27.73566406 32.97457031 -27.60804687 32.01164062 -27.4765625 31.01953125 C-27.56616827 27.52490629 -28.73982155 26.06094982 -30.55078125 23.125 C-31.37543855 17.60499662 -31.29903181 12.6769271 -28.86328125 7.625 C-21.07163971 -0.79839626 -11.1820193 -3.83579222 0 0 Z " fill="#4CCDF0" transform="translate(37.55078125,8.875)"/>
<path d="M0 0 C5.30188633 2.95919237 8.65423115 6.31602163 11 12 C12.03799691 17.7873224 11.01347263 21.93736597 8 27 C6.96840374 30.09478879 7.02517138 31.52631393 7.4375 34.6875 C7.59025391 35.89986328 7.59025391 35.89986328 7.74609375 37.13671875 C7.82988281 37.75160156 7.91367187 38.36648437 8 39 C4.26512223 38.5020163 2.18762365 38.12508244 -1 36 C-4.3217193 35.71383225 -7.60073109 35.58595359 -10.93164062 35.52148438 C-17.16632923 35.28236161 -21.22809404 33.65634688 -25.875 29.3125 C-26.57625 28.549375 -27.2775 27.78625 -28 27 C-27.67 26.34 -27.34 25.68 -27 25 C-24.3046875 24.69140625 -24.3046875 24.69140625 -20.875 24.5625 C-13.85402388 24.10928601 -9.61291866 23.2645295 -4.1875 18.5625 C-0.47890031 14.21814036 0.24964311 11.48358317 0.125 5.75 C0.09792969 4.13351563 0.09792969 4.13351563 0.0703125 2.484375 C0.04710938 1.66453125 0.02390625 0.8446875 0 0 Z " fill="#9A35C2" transform="translate(47,19)"/>
<path d="M0 0 C0.99 0 1.98 0 3 0 C3.35312211 5.88536844 3.09894526 9.79377196 0 15 C-1.03159626 18.09478879 -0.97482862 19.52631393 -0.5625 22.6875 C-0.46066406 23.49574219 -0.35882813 24.30398437 -0.25390625 25.13671875 C-0.12822266 26.05904297 -0.12822266 26.05904297 0 27 C-3.73487777 26.5020163 -5.81237635 26.12508244 -9 24 C-11.38677076 23.70547416 -13.78626094 23.5071783 -16.1875 23.375 C-18.09595703 23.26285156 -18.09595703 23.26285156 -20.04296875 23.1484375 C-21.01878906 23.09945312 -21.99460938 23.05046875 -23 23 C-22.8984375 21.13671875 -22.8984375 21.13671875 -22 19 C-19.1640625 17.76953125 -19.1640625 17.76953125 -15.625 16.8125 C-14.46226563 16.48894531 -13.29953125 16.16539063 -12.1015625 15.83203125 C-10.56628906 15.42017578 -10.56628906 15.42017578 -9 15 C-8.01 14.67 -7.02 14.34 -6 14 C-4.8974827 11.83378132 -4.8974827 11.83378132 -4 9 C-3.48439619 7.58142165 -2.96329901 6.16483116 -2.4375 4.75 C-2.18871094 4.06421875 -1.93992187 3.3784375 -1.68359375 2.671875 C-1 1 -1 1 0 0 Z " fill="#852BA6" transform="translate(55,31)"/>
<path d="M0 0 C1.91329102 -0.01836914 1.91329102 -0.01836914 3.86523438 -0.03710938 C5.09435547 -0.03904297 6.32347656 -0.04097656 7.58984375 -0.04296875 C8.71124756 -0.04707764 9.83265137 -0.05118652 10.98803711 -0.05541992 C14.07683614 0.18863273 16.27435709 0.87610154 19.0625 2.1875 C18.7325 3.1775 18.4025 4.1675 18.0625 5.1875 C12.68167008 7.37373317 5.8168152 6.37213259 0.125 6.375 C-1.15052734 6.38724609 -2.42605469 6.39949219 -3.74023438 6.41210938 C-5.58391602 6.41500977 -5.58391602 6.41500977 -7.46484375 6.41796875 C-9.14694946 6.42413208 -9.14694946 6.42413208 -10.86303711 6.43041992 C-13.95183614 6.18636727 -16.14935709 5.49889846 -18.9375 4.1875 C-18.6075 3.1975 -18.2775 2.2075 -17.9375 1.1875 C-12.55667008 -0.99873317 -5.6918152 0.00286741 0 0 Z " fill="#000000" transform="translate(31.9375,57.8125)"/>
<path d="M0 0 C1.07765625 0.01804687 2.1553125 0.03609375 3.265625 0.0546875 C4.49539062 0.08949219 4.49539062 0.08949219 5.75 0.125 C4.875 4 4.875 4 3.75 5.125 C2.698125 5.228125 1.64625 5.33125 0.5625 5.4375 C-4.74701223 6.39495303 -7.77830704 8.61242668 -11.5 12.4375 C-13.60496377 15.67012294 -14.36973106 18.38385699 -15.25 22.125 C-16.57 22.455 -17.89 22.785 -19.25 23.125 C-19.87329486 13.39467471 -19.87329486 13.39467471 -17.5625 8.6875 C-12.24043488 2.79007649 -7.99936434 -0.17389922 0 0 Z " fill="#81DCF5" transform="translate(26.25,7.875)"/>
<path d="M0 0 C3.96 0 7.92 0 12 0 C11 4 11 4 10 5 C7.34536879 5.45459858 4.67810862 5.70243238 2 6 C2 5.01 2 4.02 2 3 C1.34 2.67 0.68 2.34 0 2 C0 1.34 0 0.68 0 0 Z " fill="#7EDDF5" transform="translate(20,8)"/>
<path d="M0 0 C4 1 4 1 6 3 C5.34 5.31 4.68 7.62 4 10 C2.68 10.33 1.36 10.66 0 11 C0 7.37 0 3.74 0 0 Z " fill="#7EDCF4" transform="translate(7,20)"/>
<path d="M0 0 C0 0.99 0 1.98 0 3 C-1.65071396 4.02611949 -3.31970006 5.02308143 -5 6 C-5.53625 6.721875 -6.0725 7.44375 -6.625 8.1875 C-7.305625 9.0846875 -7.305625 9.0846875 -8 10 C-8.99 10 -9.98 10 -11 10 C-10.91979855 7.19294916 -10.54452763 5.51793117 -8.48046875 3.5546875 C-3.65625 0 -3.65625 0 0 0 Z " fill="#EFFAFD" transform="translate(22,12)"/>
<path d="M0 0 C2.125 0.375 2.125 0.375 4 1 C4.625 2.875 4.625 2.875 5 5 C4.34 5.66 3.68 6.32 3 7 C0.875 6.625 0.875 6.625 -1 6 C-1.625 4.125 -1.625 4.125 -2 2 C-1.34 1.34 -0.68 0.68 0 0 Z " fill="#038CB0" transform="translate(37,23)"/>
<path d="M0 0 C2.125 0.375 2.125 0.375 4 1 C4.625 2.875 4.625 2.875 5 5 C4.34 5.66 3.68 6.32 3 7 C0.875 6.625 0.875 6.625 -1 6 C-1.625 4.125 -1.625 4.125 -2 2 C-1.34 1.34 -0.68 0.68 0 0 Z " fill="#038CB0" transform="translate(26,23)"/>
<path d="M0 0 C2.125 0.375 2.125 0.375 4 1 C4.625 2.875 4.625 2.875 5 5 C4.34 5.66 3.68 6.32 3 7 C0.875 6.625 0.875 6.625 -1 6 C-1.625 4.125 -1.625 4.125 -2 2 C-1.34 1.34 -0.68 0.68 0 0 Z " fill="#038CB0" transform="translate(15,23)"/>
</svg>
