<?xml version="1.0" standalone="no"?>
<!DOCTYPE svg PUBLIC "-//W3C//DTD SVG 20010904//EN"
 "http://www.w3.org/TR/2001/REC-SVG-20010904/DTD/svg10.dtd">
<svg version="1.0" xmlns="http://www.w3.org/2000/svg"
 width="735.000000pt" height="401.000000pt" viewBox="0 0 735.000000 401.000000"
 preserveAspectRatio="xMidYMid meet">

<g transform="translate(0.000000,401.000000) scale(0.100000,-0.100000)"
fill="#000000" stroke="none">
<path d="M0 2005 l0 -2005 3675 0 3675 0 0 2005 0 2005 -3675 0 -3675 0 0
-2005z m3660 1076 c0 -27 -3 -30 -51 -36 -78 -11 -177 -66 -243 -135 -65 -68
-103 -143 -119 -236 -11 -61 -12 -64 -39 -64 -27 0 -28 1 -22 43 32 222 178
392 380 441 88 21 94 21 94 -13z m20 -372 c-35 -30 -42 -42 -38 -63 5 -25 4
-26 -16 -13 -25 17 -32 52 -16 72 7 8 30 20 52 25 32 9 40 16 46 43 l7 32 3
-30 c3 -25 -3 -36 -38 -66z m71 2 c-6 -11 -20 -25 -31 -31 -11 -6 -20 -20 -20
-31 0 -25 -23 -20 -28 5 -5 22 16 46 39 46 10 0 24 9 31 20 16 25 23 18 9 -9z
m66 -107 c20 -5 21 -8 8 -21 -20 -19 -20 -39 0 -23 30 25 14 -7 -21 -41 l-35
-34 33 -5 33 -6 -35 -19 c-53 -29 -191 -28 -245 2 l-40 22 32 1 32 0 -24 36
c-14 20 -25 49 -25 65 l0 28 132 0 c73 0 142 -2 155 -5z m-571 -71 c30 -136
90 -228 198 -302 47 -32 151 -71 191 -71 21 0 25 -5 25 -30 0 -35 -9 -37 -95
-15 -122 32 -249 126 -310 228 -31 55 -65 151 -65 189 0 23 4 28 25 28 19 0
26 -7 31 -27z m939 -15 c-33 -195 -198 -366 -393 -407 -77 -16 -82 -15 -82 18
0 27 3 29 52 35 167 22 337 189 364 354 6 38 9 42 36 42 29 0 30 0 23 -42z
m-1130 -718 c28 -31 10 -74 -33 -78 -28 -3 -32 -7 -32 -33 0 -22 -5 -29 -20
-29 -18 0 -20 7 -20 80 l0 80 43 0 c31 0 49 -6 62 -20z m136 10 c22 -12 25
-53 5 -72 -12 -11 -11 -18 6 -45 l20 -33 -21 0 c-13 0 -26 11 -36 30 -9 17
-20 30 -25 30 -6 0 -10 -13 -10 -30 0 -23 -4 -30 -20 -30 -18 0 -20 7 -20 80
l0 80 41 0 c22 0 49 -5 60 -10z m137 2 c20 -13 32 -68 21 -104 -10 -37 -24
-48 -61 -48 -34 0 -58 33 -58 80 0 47 24 80 58 80 15 0 33 -4 40 -8z m147 -8
c21 -22 4 -44 -19 -24 -28 23 -47 4 -44 -42 2 -36 7 -44 26 -46 15 -2 22 2 22
12 0 9 -7 16 -15 16 -8 0 -15 7 -15 15 0 10 10 15 30 15 27 0 30 -3 30 -33 0
-40 -15 -57 -51 -57 -49 0 -76 45 -65 106 10 51 66 72 101 38z m146 6 c23 -13
25 -52 4 -70 -13 -11 -13 -16 1 -42 19 -37 26 -31 54 55 16 50 26 67 40 67 14
0 24 -17 41 -67 12 -38 24 -74 27 -80 2 -7 -3 -13 -13 -13 -9 0 -19 9 -22 20
-4 14 -14 20 -33 20 -19 0 -29 -6 -33 -20 -4 -15 -14 -20 -40 -20 -29 0 -39 6
-54 30 -9 17 -21 30 -25 30 -4 0 -8 -13 -8 -30 0 -23 -4 -30 -20 -30 -18 0
-20 7 -20 80 l0 80 41 0 c22 0 49 -5 60 -10z m232 -30 l10 -35 10 38 c6 26 14
37 28 37 17 0 19 -8 19 -80 0 -89 -17 -110 -22 -27 -4 49 -4 50 -12 20 -5 -18
-15 -33 -22 -33 -7 0 -18 15 -23 33 -9 30 -9 29 -10 -20 -1 -40 -5 -53 -16
-53 -12 0 -15 16 -15 81 0 77 1 80 22 77 15 -2 25 -13 31 -38z m143 3 l8 -38
10 38 c8 30 14 37 30 35 19 -3 21 -10 21 -77 0 -51 -4 -76 -12 -78 -9 -3 -13
11 -14 49 -1 51 -1 52 -11 21 -6 -18 -16 -33 -23 -33 -7 0 -17 15 -23 33 -10
31 -10 31 -11 -20 -1 -71 -18 -67 -23 5 -4 80 0 102 22 102 13 0 20 -11 26
-37z m212 25 c-3 -7 -21 -14 -41 -16 -29 -3 -37 -7 -37 -23 0 -15 7 -19 35
-19 19 0 35 -4 35 -10 0 -5 -16 -10 -35 -10 -28 0 -35 -4 -35 -20 0 -17 7 -20
40 -20 29 0 40 -4 40 -15 0 -12 -13 -15 -60 -15 l-60 0 0 80 0 80 61 0 c44 0
60 -3 57 -12z m123 2 c23 -13 26 -68 4 -76 -13 -5 -12 -11 6 -40 l21 -34 -21
0 c-13 0 -26 11 -36 30 -20 39 -35 38 -35 -1 0 -24 -4 -30 -17 -27 -15 3 -18
15 -19 68 -1 36 1 71 3 78 6 15 67 16 94 2z m119 -40 c0 -11 -7 -20 -15 -20
-8 0 -15 9 -15 20 0 11 7 20 15 20 8 0 15 -9 15 -20z m-2 -93 c2 -10 -3 -17
-12 -17 -10 0 -16 9 -16 21 0 24 23 21 28 -4z m-1925 -144 c3 -5 7 -24 11 -43
3 -19 3 -29 0 -22 -3 6 -12 12 -19 12 -7 0 -15 -6 -18 -12 -11 -31 -15 2 -5
35 11 35 22 46 31 30z m147 -3 c0 -5 -4 -10 -10 -10 -5 0 -10 -14 -10 -31 0
-17 -4 -28 -10 -24 -5 3 -10 16 -10 29 0 12 -5 27 -12 34 -9 9 -5 12 20 12 18
0 32 -4 32 -10z m59 -7 c9 -17 11 -17 23 0 19 26 48 12 48 -23 0 -33 -29 -49
-46 -26 -9 13 -12 13 -27 -1 -13 -13 -19 -14 -31 -3 -19 15 -21 41 -4 58 16
16 25 15 37 -5z m117 -43 c8 0 14 -4 14 -10 0 -5 -9 -10 -20 -10 -17 0 -20 6
-18 43 1 36 2 38 5 10 3 -20 10 -33 19 -33z m144 50 c0 -5 -7 -10 -15 -10 -21
0 -19 -20 3 -21 16 -1 16 -2 0 -6 -10 -2 -18 -11 -18 -19 0 -8 -4 -13 -8 -10
-4 3 -6 21 -4 40 3 27 9 36 23 36 10 0 19 -4 19 -10z m65 -30 c0 -28 -4 -35
-20 -35 -13 0 -21 8 -23 23 -5 34 5 54 25 50 13 -2 18 -13 18 -38z m71 -2 c1
-42 -3 -46 -22 -20 -13 16 -13 16 -14 -1 0 -10 -4 -16 -9 -13 -7 5 -8 56 -2
74 1 2 11 2 24 0 18 -2 22 -10 23 -40z m124 32 c12 -8 11 -10 -7 -10 -17 0
-23 -6 -23 -21 0 -16 5 -20 20 -16 24 6 27 -8 4 -17 -34 -13 -59 35 -32 62 14
14 19 15 38 2z m65 -30 c0 -28 -4 -35 -20 -35 -13 0 -21 8 -23 23 -5 34 5 54
25 50 13 -2 18 -13 18 -38z m39 -8 c-9 -43 -21 -32 -16 13 3 22 8 33 13 28 5
-5 6 -24 3 -41z m36 8 c0 -29 -14 -48 -24 -31 -9 13 5 72 15 65 5 -3 9 -18 9
-34z m45 13 c4 15 11 27 15 27 9 0 -2 -50 -16 -71 -9 -15 -33 27 -33 56 1 15
4 13 14 -10 l13 -30 7 28z m85 22 c0 -3 -10 -10 -22 -15 -18 -7 -19 -9 -5 -9
9 -1 17 -5 17 -10 0 -5 -8 -12 -17 -14 -14 -4 -12 -5 5 -6 30 -1 28 -21 -3
-21 -22 0 -25 4 -25 40 0 36 3 40 25 40 14 0 25 -2 25 -5z m56 -7 c8 -12 12
-68 5 -68 -2 0 -10 8 -17 18 -13 16 -13 16 -14 0 0 -38 -20 -16 -20 22 0 33 3
40 19 40 11 0 23 -5 27 -12z m74 2 c0 -5 -4 -10 -10 -10 -5 0 -10 -14 -10 -31
0 -17 -4 -28 -10 -24 -5 3 -10 16 -10 29 0 12 -5 27 -12 34 -9 9 -5 12 20 12
18 0 32 -4 32 -10z m60 5 c0 -3 -6 -15 -12 -26 -10 -17 -10 -23 0 -26 21 -8
13 -23 -13 -23 -23 0 -24 2 -13 20 10 16 10 24 0 40 -11 18 -10 20 13 20 14 0
25 -2 25 -5z m54 -25 c4 0 5 4 1 9 -3 5 -1 12 5 16 6 4 10 -9 10 -34 0 -45
-14 -54 -26 -18 l-8 22 -7 -25 c-5 -20 -7 -16 -8 20 0 39 1 43 13 28 7 -10 16
-18 20 -18z m70 21 c3 -5 -4 -11 -15 -14 -22 -6 -22 -28 1 -35 7 -3 10 0 6 7
-4 6 -1 11 8 11 20 0 20 -14 1 -30 -30 -25 -61 30 -33 58 14 14 25 15 32 3z
m134 -9 c2 -7 -2 -10 -12 -6 -12 4 -16 0 -16 -16 0 -16 4 -20 15 -16 17 6 21
-9 5 -19 -14 -9 -40 13 -40 34 0 34 38 52 48 23z m67 -32 c3 -19 3 -29 -1 -22
-3 6 -12 12 -19 12 -7 0 -15 -6 -18 -12 -2 -7 -7 -10 -11 -7 -4 4 0 24 9 45
18 43 32 37 40 -16z m65 40 c0 -5 -8 -10 -17 -10 -16 -1 -16 -2 1 -15 17 -13
17 -15 4 -15 -9 0 -19 -8 -21 -17 -3 -10 -5 1 -6 25 -1 36 2 42 19 42 11 0 20
-4 20 -10z m70 0 c0 -5 -7 -10 -15 -10 -21 0 -19 -20 3 -21 16 -1 16 -2 0 -6
-10 -2 -18 -11 -18 -19 0 -8 -4 -14 -10 -14 -5 0 -10 18 -10 40 0 36 3 40 25
40 14 0 25 -4 25 -10z m60 0 c0 -5 -8 -11 -17 -11 -17 -1 -17 -2 0 -6 9 -2 17
-9 17 -14 0 -5 -8 -9 -17 -10 -13 0 -11 -3 7 -11 21 -9 22 -12 7 -15 -30 -8
-47 5 -47 35 0 16 3 32 7 35 10 11 43 8 43 -3z m70 0 c0 -5 -4 -10 -10 -10 -5
0 -10 -9 -10 -20 0 -11 5 -20 10 -20 6 0 10 -4 10 -10 0 -5 -11 -10 -25 -10
-14 0 -25 5 -25 10 0 6 5 10 10 10 14 0 13 33 -2 48 -9 9 -6 12 15 12 15 0 27
-4 27 -10z m34 -38 c-4 -17 -11 -29 -16 -26 -7 5 -7 35 1 74 1 2 6 -1 11 -6 6
-6 7 -25 4 -42z m36 8 c0 -29 -14 -48 -24 -31 -9 13 5 72 15 65 5 -3 9 -18 9
-34z m60 30 c0 -5 -8 -10 -17 -10 -16 -1 -16 -2 2 -12 19 -11 19 -11 0 -19
-17 -7 -18 -8 -2 -8 27 -1 20 -21 -8 -21 -22 0 -25 4 -25 40 0 36 3 40 25 40
14 0 25 -4 25 -10z m130 0 c0 -5 -4 -10 -10 -10 -5 0 -10 -9 -10 -20 0 -11 5
-20 10 -20 6 0 10 -4 10 -10 0 -5 -11 -10 -25 -10 -23 0 -24 2 -13 20 10 16
10 24 0 40 -11 18 -10 20 13 20 14 0 25 -4 25 -10z m57 -2 c11 15 12 11 13
-25 0 -46 -14 -57 -26 -20 l-8 22 -7 -25 c-5 -20 -7 -15 -7 20 -1 37 1 42 11
28 10 -15 12 -15 24 0z m68 -9 c-4 -12 -8 -28 -9 -35 -4 -29 -16 -26 -16 4 0
18 -4 32 -10 32 -5 0 -10 5 -10 10 0 6 12 10 26 10 21 0 24 -3 19 -21z m59 15
c32 -12 15 -74 -19 -74 -14 0 -25 42 -15 60 12 22 12 22 34 14z m143 -11 c3
-7 -3 -9 -16 -6 -17 4 -21 1 -21 -17 0 -18 4 -21 21 -17 13 3 19 1 16 -6 -2
-7 -12 -12 -23 -12 -20 0 -31 33 -20 61 7 17 37 15 43 -3z m63 -3 c11 -20 -1
-60 -18 -60 -28 0 -44 63 -19 73 21 9 26 7 37 -13z m54 14 c35 -13 14 -74 -25
-74 -5 0 -9 18 -9 40 0 40 5 45 34 34z m76 -4 c0 -5 -8 -11 -17 -11 -17 -1
-17 -2 0 -6 9 -2 17 -9 17 -14 0 -5 -8 -10 -17 -10 -17 -1 -17 -2 0 -6 25 -7
21 -25 -5 -21 -23 3 -35 35 -24 64 6 16 46 19 46 4z"/>
<path d="M2990 1764 c0 -33 33 -30 38 4 3 17 -2 22 -17 22 -16 0 -21 -6 -21
-26z"/>
<path d="M3130 1770 c0 -16 5 -21 23 -18 12 2 22 10 22 18 0 8 -10 16 -22 18
-18 3 -23 -2 -23 -18z"/>
<path d="M3270 1770 c-6 -12 -8 -34 -5 -51 5 -24 12 -29 28 -27 19 3 22 10 22
48 0 34 -4 46 -17 48 -9 2 -22 -6 -28 -18z"/>
<path d="M3560 1770 c0 -16 5 -21 23 -18 12 2 22 10 22 18 0 8 -10 16 -22 18
-18 3 -23 -2 -23 -18z"/>
<path d="M3708 1755 c-4 -19 -1 -25 12 -25 13 0 16 6 12 25 -2 14 -8 25 -12
25 -4 0 -10 -11 -12 -25z"/>
<path d="M4270 1770 c0 -16 5 -21 23 -18 12 2 22 10 22 18 0 8 -10 16 -22 18
-18 3 -23 -2 -23 -18z"/>
<path d="M2700 1500 c0 -11 5 -20 10 -20 6 0 10 9 10 20 0 11 -4 20 -10 20 -5
0 -10 -9 -10 -20z"/>
<path d="M2760 1500 c0 -13 5 -20 13 -17 6 2 12 10 12 17 0 7 -6 15 -12 18 -8
2 -13 -5 -13 -18z"/>
<path d="M3020 1500 c0 -11 7 -20 15 -20 8 0 15 9 15 20 0 11 -7 20 -15 20 -8
0 -15 -9 -15 -20z"/>
<path d="M3090 1510 c0 -5 5 -10 10 -10 6 0 10 5 10 10 0 6 -4 10 -10 10 -5 0
-10 -4 -10 -10z"/>
<path d="M3280 1500 c0 -11 7 -20 15 -20 8 0 15 9 15 20 0 11 -7 20 -15 20 -8
0 -15 -9 -15 -20z"/>
<path d="M3550 1509 c0 -5 5 -7 10 -4 6 3 10 8 10 11 0 2 -4 4 -10 4 -5 0 -10
-5 -10 -11z"/>
<path d="M4720 1500 c0 -19 11 -26 23 -14 8 8 -3 34 -14 34 -5 0 -9 -9 -9 -20z"/>
<path d="M4920 1500 c0 -11 5 -20 10 -20 6 0 10 9 10 20 0 11 -4 20 -10 20 -5
0 -10 -9 -10 -20z"/>
<path d="M4980 1500 c0 -13 5 -20 13 -17 6 2 12 10 12 17 0 7 -6 15 -12 18 -8
2 -13 -5 -13 -18z"/>
</g>
</svg>
